<?xml version="1.0" standalone="no"?>
<!DOCTYPE svg PUBLIC "-//W3C//DTD SVG 20010904//EN"
 "http://www.w3.org/TR/2001/REC-SVG-20010904/DTD/svg10.dtd">
<svg version="1.0" xmlns="http://www.w3.org/2000/svg"
 width="180.000000pt" height="180.000000pt" viewBox="0 0 180.000000 180.000000"
 preserveAspectRatio="xMidYMid meet">
<metadata>
Created by potrace 1.14, written by Peter Selinger 2001-2017
</metadata>
<g transform="translate(0.000000,180.000000) scale(0.100000,-0.100000)"
fill="#000000" stroke="none">
<path d="M175 1788 c-65 -23 -114 -66 -147 -130 l-23 -43 0 -715 0 -715 23
-43 c28 -53 45 -72 102 -108 l45 -29 706 -3 c516 -1 715 1 740 10 61 20 114
64 144 120 l30 53 0 715 0 715 -23 43 c-26 51 -53 79 -107 112 l-40 25 -710 2
c-481 1 -720 -2 -740 -9z"/>
</g>
</svg>
